<svg id="Capa_1" data-name="Capa 1" xmlns="http://www.w3.org/2000/svg" width="105.47mm" height="23.95mm" viewBox="0 0 298.97 67.88">
  <defs>
    <style>
      .cls-1 {
        fill: #892c7f;
      }

      .cls-2 {
        fill: #393939;
      }

      .cls-3 {
        fill: #fff;
        opacity: 0.12;
      }
    </style>
  </defs>
  <g>
    <path class="cls-1" d="M41.77,11.52Q38.44,7.76,31.43,7.76H17.16c-3.61,0-5.66,1.73-6.16,5.17L5.22,50.58H15.93l2.21-14.89h9.72q14,0,16.24-13.78Q45.09,15.27,41.77,11.52ZM33.65,21.79c-.41,3.28-2.51,4.92-6.28,4.92H19.5l1.47-10h7.88Q34.27,16.75,33.65,21.79Z"/>
    <path class="cls-1" d="M66.38,16.75c-5.34.08-9.72,1.35-13.17,3.81q-6,4.07-7.75,14L43,50.58H53.58l2.58-16.85q1-6.4,7-6.28H67l1.6-10.58C67.44,16.79,66.7,16.75,66.38,16.75Z"/>
    <path class="cls-1" d="M93.13,17.73a18.59,18.59,0,0,0-10.58-.62q-12.18,3-14.76,16.62Q66.68,43,71.11,47.51q5.77,4.8,15.38,3.07,12.06-3,13.9-16.73Q101.62,21.06,93.13,17.73Zm-2.58,16Q89.32,42.46,83,42.46q-6.39-.24-4.79-8.73,1.84-8.49,7.5-8.37Q92,25.24,90.55,33.73Z"/>
    <path class="cls-1" d="M130.21,17.24a5.24,5.24,0,0,0-5.16,3.07L117.54,36.8l-3-19.56h-11L110,49.6q1,5-4.67,5h-3.2l-1.23,8.62q12.42,3.2,17.84-7.63l18.7-38.39Z"/>
    <path class="cls-1" d="M154.41,16.75a17.48,17.48,0,0,0-12.55,4.67,20.7,20.7,0,0,0-6.15,12.43Q133.49,50.34,149.24,51q13.55,0,18-11.81h-7.38A5.88,5.88,0,0,0,155.52,41,6.46,6.46,0,0,1,151,42.71c-2.14,0-3.57-.66-4.31-2a7.69,7.69,0,0,1-.62-4.8h22a25.94,25.94,0,0,0,.49-8.61Q166.72,16.74,154.41,16.75Zm-7.13,13.16c1.23-3.12,3.24-4.67,6-4.67a6,6,0,0,1,4.19,1.35,4.37,4.37,0,0,1,1,3.32Z"/>
    <path class="cls-1" d="M192.38,41a6.4,6.4,0,0,1-4.55,1.59q-6.27-.12-4.8-8.73,1.72-8.49,7.39-8.49,4.17,0,4.92,3.57h10.09a12.77,12.77,0,0,0-2.71-7.63q-3.45-4.44-11.44-4.55a16.63,16.63,0,0,0-12.55,4.67,21.16,21.16,0,0,0-6.16,12.43q-1.09,9.6,3.33,13.66,3.81,3.43,10.21,3.69a16.14,16.14,0,0,0,10.7-2.83,21.92,21.92,0,0,0,6.89-8.12l.5-1.11h-7.51A5.88,5.88,0,0,0,192.38,41Z"/>
    <path class="cls-1" d="M220.71,25.24c3.12,0,5-1.73,5.66-5.17l.49-2.83h-5l.74-4.31c.57-3.44-.86-5.17-4.31-5.17h-5.54L207.3,43.2q-1.23,7.88,9.1,7.38l5.42-.37,1.23-8.36H219.6c-1,0-1.39-.5-1.23-1.48Z"/>
    <path class="cls-1" d="M245.35,16.75q-13.78.24-15.51,10.58h10.22q.62-2.46,4.79-2.46t4.07,2c0,1.15-2.88,2.06-8.62,2.71Q228.5,30.77,227,40.37q-1.11,6.89,4.31,9.47a21.92,21.92,0,0,0,7.26,1.36A22.9,22.9,0,0,0,249,49.11a15.62,15.62,0,0,0,8.37-11.94L259,26.47Q260.49,16.5,245.35,16.75Zm-.25,24.6a6.65,6.65,0,0,1-5,1.6c-2,0-3-.86-3-2.58.08-2,2.34-3.45,6.77-4.18a10.84,10.84,0,0,0,3.81-1Q247.07,39.5,245.1,41.35Z"/>
  </g>
  <g>
    <path class="cls-2" d="M270.49,47.21l-.24,1.39q-.5,2.55-2.79,2.55l-1.16,7.47c-.08.49.12.73.61.73h1.7L268,63.48l-2.67.18c-3.4.17-4.9-1-4.49-3.64l2.67-17.49h2.73q2.55,0,2.13,2.55L268,47.21Z"/>
    <path class="cls-2" d="M271,63.66l2.49-16.45h2.61q2.67-.12,2.25,2.61l-2.07,13.84Z"/>
    <path class="cls-2" d="M295.45,58l-.24.54a10.82,10.82,0,0,1-3.4,4,8,8,0,0,1-5.28,1.4,7.74,7.74,0,0,1-5-1.82q-2.18-2-1.64-6.75a10.49,10.49,0,0,1,3-6.13,8.24,8.24,0,0,1,6.2-2.31q3.94.06,5.64,2.25A6.27,6.27,0,0,1,296.06,53h-5a2.15,2.15,0,0,0-2.43-1.77c-1.86,0-3.08,1.4-3.64,4.19s.3,4.28,2.37,4.32a3.22,3.22,0,0,0,2.24-.79,2.92,2.92,0,0,1,2.13-.91Z"/>
  </g>
  <circle class="cls-1" cx="276.87" cy="41.53" r="3.8"/>
  <ellipse class="cls-3" cx="126.86" cy="56.31" rx="143.83" ry="26.51"/>
</svg>
